<svg width="1441" height="741" viewBox="0 0 1441 741" fill="none" xmlns="http://www.w3.org/2000/svg">
<line x1="72.5" y1="2.18557e-08" x2="72.5" y2="741" stroke="black"/>
<line x1="144.5" y1="2.18557e-08" x2="144.5" y2="741" stroke="black"/>
<line x1="288.5" y1="2.18557e-08" x2="288.5" y2="741" stroke="black"/>
<line x1="216.5" y1="2.18557e-08" x2="216.5" y2="741" stroke="black"/>
<line x1="360.5" y1="2.18557e-08" x2="360.5" y2="741" stroke="black"/>
<line x1="432.5" y1="2.18557e-08" x2="432.5" y2="741" stroke="black"/>
<line x1="504.5" y1="2.18557e-08" x2="504.5" y2="741" stroke="black"/>
<line x1="792.5" y1="2.18557e-08" x2="792.5" y2="741" stroke="black"/>
<line x1="936.5" y1="2.18557e-08" x2="936.5" y2="741" stroke="black"/>
<line x1="1008.5" y1="2.18557e-08" x2="1008.5" y2="741" stroke="black"/>
<line x1="1224.5" y1="2.18557e-08" x2="1224.5" y2="741" stroke="black"/>
<line x1="1368.5" y1="2.18557e-08" x2="1368.5" y2="741" stroke="black"/>
<line x1="1296.5" y1="2.18557e-08" x2="1296.5" y2="741" stroke="black"/>
<line x1="1080.5" y1="2.18557e-08" x2="1080.5" y2="741" stroke="black"/>
<line x1="1440.5" y1="2.18557e-08" x2="1440.5" y2="741" stroke="black"/>
<line x1="1152.5" y1="2.18557e-08" x2="1152.5" y2="741" stroke="black"/>
<line x1="864.5" y1="2.18557e-08" x2="864.5" y2="741" stroke="black"/>
<line x1="0.5" y1="2.18557e-08" x2="0.499968" y2="741" stroke="black"/>
<line x1="648.5" y1="2.18557e-08" x2="648.5" y2="741" stroke="black"/>
<line x1="576.5" y1="2.18557e-08" x2="576.5" y2="741" stroke="black"/>
<line x1="720.5" y1="2.18557e-08" x2="720.5" y2="741" stroke="black"/>
<line x1="1440" y1="11" x2="0.000244076" y2="10.9999" stroke="black"/>
<line x1="1440" y1="83" x2="0.000244076" y2="82.9999" stroke="black"/>
<line x1="1440" y1="155" x2="0.000244076" y2="155" stroke="black"/>
<line x1="1440" y1="443" x2="0.000244076" y2="443" stroke="black"/>
<line x1="1440" y1="587" x2="0.000244076" y2="587" stroke="black"/>
<line x1="1440" y1="659" x2="0.000244076" y2="659" stroke="black"/>
<line x1="1440" y1="515" x2="0.000244076" y2="515" stroke="black"/>
<line x1="1440" y1="299" x2="0.000244076" y2="299" stroke="black"/>
<line x1="1440" y1="227" x2="0.000244076" y2="227" stroke="black"/>
<line x1="1440" y1="371" x2="0.000244076" y2="371" stroke="black"/>
</svg>
