<svg width="82" height="17" viewBox="0 0 82 17" fill="none" xmlns="http://www.w3.org/2000/svg">
<path d="M9.8 9.8C9.88 10.12 9.92 10.52 9.92 11C9.92 11.46 9.88 11.86 9.8 12.2C9.88 12.52 9.92 12.92 9.92 13.4C9.92 13.86 9.88 14.26 9.8 14.6H8.6C8.68 14.92 8.72 15.32 8.72 15.8C8.72 16.26 8.68 16.66 8.6 17H1.4C1.32 16.66 1.28 16.26 1.28 15.8C1.28 15.32 1.32 14.92 1.4 14.6H0.2C0.12 14.26 0.0800001 13.86 0.0800001 13.4C0.0800001 12.92 0.12 12.52 0.2 12.2H2.6C2.68 12.52 2.72 12.92 2.72 13.4C2.72 13.86 2.68 14.26 2.6 14.6H7.4C7.32 14.26 7.28 13.86 7.28 13.4C7.28 12.92 7.32 12.52 7.4 12.2C7.32 11.86 7.28 11.46 7.28 11C7.28 10.52 7.32 10.12 7.4 9.8H1.4C1.32 9.46 1.28 9.06 1.28 8.6C1.28 8.12 1.32 7.72 1.4 7.4H0.2C0.12 7.06 0.0800001 6.66 0.0800001 6.2C0.0800001 5.72 0.12 5.32 0.2 5C0.12 4.66 0.0800001 4.26 0.0800001 3.8C0.0800001 3.32 0.12 2.92 0.2 2.6H1.4C1.32 2.26 1.28 1.86 1.28 1.4C1.28 0.919999 1.32 0.519999 1.4 0.2H8.6C8.68 0.519999 8.72 0.919999 8.72 1.4C8.72 1.86 8.68 2.26 8.6 2.6H9.8C9.88 2.92 9.92 3.32 9.92 3.8C9.92 4.26 9.88 4.66 9.8 5H7.4C7.32 4.66 7.28 4.26 7.28 3.8C7.28 3.32 7.32 2.92 7.4 2.6H2.6C2.68 2.92 2.72 3.32 2.72 3.8C2.72 4.26 2.68 4.66 2.6 5C2.68 5.32 2.72 5.72 2.72 6.2C2.72 6.66 2.68 7.06 2.6 7.4H8.6C8.68 7.72 8.72 8.12 8.72 8.6C8.72 9.06 8.68 9.46 8.6 9.8H9.8ZM21.9317 1.4C21.9317 1.86 21.8917 2.26 21.8117 2.6H18.2117C18.2917 2.92 18.3317 3.32 18.3317 3.8C18.3317 4.26 18.2917 4.66 18.2117 5C18.2917 5.32 18.3317 5.72 18.3317 6.2C18.3317 6.66 18.2917 7.06 18.2117 7.4C18.2917 7.72 18.3317 8.12 18.3317 8.6C18.3317 9.06 18.2917 9.46 18.2117 9.8C18.2917 10.12 18.3317 10.52 18.3317 11C18.3317 11.46 18.2917 11.86 18.2117 12.2C18.2917 12.52 18.3317 12.92 18.3317 13.4C18.3317 13.86 18.2917 14.26 18.2117 14.6C18.2917 14.92 18.3317 15.32 18.3317 15.8C18.3317 16.26 18.2917 16.66 18.2117 17H15.8117C15.7317 16.66 15.6917 16.26 15.6917 15.8C15.6917 15.32 15.7317 14.92 15.8117 14.6C15.7317 14.26 15.6917 13.86 15.6917 13.4C15.6917 12.92 15.7317 12.52 15.8117 12.2C15.7317 11.86 15.6917 11.46 15.6917 11C15.6917 10.52 15.7317 10.12 15.8117 9.8C15.7317 9.46 15.6917 9.06 15.6917 8.6C15.6917 8.12 15.7317 7.72 15.8117 7.4C15.7317 7.06 15.6917 6.66 15.6917 6.2C15.6917 5.72 15.7317 5.32 15.8117 5C15.7317 4.66 15.6917 4.26 15.6917 3.8C15.6917 3.32 15.7317 2.92 15.8117 2.6H12.2117C12.1317 2.26 12.0917 1.86 12.0917 1.4C12.0917 0.919999 12.1317 0.519999 12.2117 0.2H21.8117C21.8917 0.519999 21.9317 0.919999 21.9317 1.4ZM33.9434 13.4C33.9434 13.86 33.9034 14.26 33.8234 14.6C33.9034 14.92 33.9434 15.32 33.9434 15.8C33.9434 16.26 33.9034 16.66 33.8234 17H31.4234C31.3434 16.66 31.3034 16.26 31.3034 15.8C31.3034 15.32 31.3434 14.92 31.4234 14.6C31.3434 14.26 31.3034 13.86 31.3034 13.4C31.3034 12.92 31.3434 12.52 31.4234 12.2H26.6234C26.7034 12.52 26.7434 12.92 26.7434 13.4C26.7434 13.86 26.7034 14.26 26.6234 14.6C26.7034 14.92 26.7434 15.32 26.7434 15.8C26.7434 16.26 26.7034 16.66 26.6234 17H24.2234C24.1434 16.66 24.1034 16.26 24.1034 15.8C24.1034 15.32 24.1434 14.92 24.2234 14.6C24.1434 14.26 24.1034 13.86 24.1034 13.4C24.1034 12.92 24.1434 12.52 24.2234 12.2H25.1234C25.0434 11.86 25.0034 11.46 25.0034 11C25.0034 10.52 25.0434 10.12 25.1234 9.8C25.0434 9.46 25.0034 9.06 25.0034 8.6C25.0034 8.12 25.0434 7.72 25.1234 7.4H25.7234C25.6434 7.06 25.6034 6.66 25.6034 6.2C25.6034 5.72 25.6434 5.32 25.7234 5H26.6234C26.5434 4.66 26.5034 4.26 26.5034 3.8C26.5034 3.32 26.5434 2.92 26.6234 2.6H27.2234C27.1434 2.26 27.1034 1.86 27.1034 1.4C27.1034 0.919999 27.1434 0.519999 27.2234 0.2H30.8234C30.9034 0.519999 30.9434 0.919999 30.9434 1.4C30.9434 1.86 30.9034 2.26 30.8234 2.6H31.4234C31.5034 2.92 31.5434 3.32 31.5434 3.8C31.5434 4.26 31.5034 4.66 31.4234 5H32.3234C32.4034 5.32 32.4434 5.72 32.4434 6.2C32.4434 6.66 32.4034 7.06 32.3234 7.4H32.9234C33.0034 7.72 33.0434 8.12 33.0434 8.6C33.0434 9.06 33.0034 9.46 32.9234 9.8C33.0034 10.12 33.0434 10.52 33.0434 11C33.0434 11.46 33.0034 11.86 32.9234 12.2H33.8234C33.9034 12.52 33.9434 12.92 33.9434 13.4ZM30.5234 9.8C30.4434 9.46 30.4034 9.06 30.4034 8.6C30.4034 8.12 30.4434 7.72 30.5234 7.4H29.9234C29.8434 7.06 29.8034 6.66 29.8034 6.2C29.8034 5.72 29.8434 5.32 29.9234 5H28.1234C28.2034 5.32 28.2434 5.72 28.2434 6.2C28.2434 6.66 28.2034 7.06 28.1234 7.4H27.5234C27.6034 7.72 27.6434 8.12 27.6434 8.6C27.6434 9.06 27.6034 9.46 27.5234 9.8H30.5234ZM45.9552 1.4C45.9552 1.86 45.9152 2.26 45.8352 2.6H42.2352C42.3152 2.92 42.3552 3.32 42.3552 3.8C42.3552 4.26 42.3152 4.66 42.2352 5C42.3152 5.32 42.3552 5.72 42.3552 6.2C42.3552 6.66 42.3152 7.06 42.2352 7.4C42.3152 7.72 42.3552 8.12 42.3552 8.6C42.3552 9.06 42.3152 9.46 42.2352 9.8C42.3152 10.12 42.3552 10.52 42.3552 11C42.3552 11.46 42.3152 11.86 42.2352 12.2C42.3152 12.52 42.3552 12.92 42.3552 13.4C42.3552 13.86 42.3152 14.26 42.2352 14.6C42.3152 14.92 42.3552 15.32 42.3552 15.8C42.3552 16.26 42.3152 16.66 42.2352 17H39.8352C39.7552 16.66 39.7152 16.26 39.7152 15.8C39.7152 15.32 39.7552 14.92 39.8352 14.6C39.7552 14.26 39.7152 13.86 39.7152 13.4C39.7152 12.92 39.7552 12.52 39.8352 12.2C39.7552 11.86 39.7152 11.46 39.7152 11C39.7152 10.52 39.7552 10.12 39.8352 9.8C39.7552 9.46 39.7152 9.06 39.7152 8.6C39.7152 8.12 39.7552 7.72 39.8352 7.4C39.7552 7.06 39.7152 6.66 39.7152 6.2C39.7152 5.72 39.7552 5.32 39.8352 5C39.7552 4.66 39.7152 4.26 39.7152 3.8C39.7152 3.32 39.7552 2.92 39.8352 2.6H36.2352C36.1552 2.26 36.1152 1.86 36.1152 1.4C36.1152 0.919999 36.1552 0.519999 36.2352 0.2H45.8352C45.9152 0.519999 45.9552 0.919999 45.9552 1.4ZM56.0469 14.6C56.1269 14.92 56.1669 15.32 56.1669 15.8C56.1669 16.26 56.1269 16.66 56.0469 17H50.0469C49.9669 16.66 49.9269 16.26 49.9269 15.8C49.9269 15.32 49.9669 14.92 50.0469 14.6H51.8469C51.7669 14.26 51.7269 13.86 51.7269 13.4C51.7269 12.92 51.7669 12.52 51.8469 12.2C51.7669 11.86 51.7269 11.46 51.7269 11C51.7269 10.52 51.7669 10.12 51.8469 9.8C51.7669 9.46 51.7269 9.06 51.7269 8.6C51.7269 8.12 51.7669 7.72 51.8469 7.4C51.7669 7.06 51.7269 6.66 51.7269 6.2C51.7269 5.72 51.7669 5.32 51.8469 5C51.7669 4.66 51.7269 4.26 51.7269 3.8C51.7269 3.32 51.7669 2.92 51.8469 2.6H50.0469C49.9669 2.26 49.9269 1.86 49.9269 1.4C49.9269 0.919999 49.9669 0.519999 50.0469 0.2H56.0469C56.1269 0.519999 56.1669 0.919999 56.1669 1.4C56.1669 1.86 56.1269 2.26 56.0469 2.6H54.2469C54.3269 2.92 54.3669 3.32 54.3669 3.8C54.3669 4.26 54.3269 4.66 54.2469 5C54.3269 5.32 54.3669 5.72 54.3669 6.2C54.3669 6.66 54.3269 7.06 54.2469 7.4C54.3269 7.72 54.3669 8.12 54.3669 8.6C54.3669 9.06 54.3269 9.46 54.2469 9.8C54.3269 10.12 54.3669 10.52 54.3669 11C54.3669 11.46 54.3269 11.86 54.2469 12.2C54.3269 12.52 54.3669 12.92 54.3669 13.4C54.3669 13.86 54.3269 14.26 54.2469 14.6H56.0469ZM69.8586 7.4C69.9386 7.72 69.9786 8.12 69.9786 8.6C69.9786 9.06 69.9386 9.46 69.8586 9.8C69.9386 10.12 69.9786 10.52 69.9786 11C69.9786 11.46 69.9386 11.86 69.8586 12.2H68.9586C69.0386 12.52 69.0786 12.92 69.0786 13.4C69.0786 13.86 69.0386 14.26 68.9586 14.6H67.4586C67.5386 14.92 67.5786 15.32 67.5786 15.8C67.5786 16.26 67.5386 16.66 67.4586 17H62.6586C62.5786 16.66 62.5386 16.26 62.5386 15.8C62.5386 15.32 62.5786 14.92 62.6586 14.6H61.1586C61.0786 14.26 61.0386 13.86 61.0386 13.4C61.0386 12.92 61.0786 12.52 61.1586 12.2H60.2586C60.1786 11.86 60.1386 11.46 60.1386 11C60.1386 10.52 60.1786 10.12 60.2586 9.8C60.1786 9.46 60.1386 9.06 60.1386 8.6C60.1386 8.12 60.1786 7.72 60.2586 7.4C60.1786 7.06 60.1386 6.66 60.1386 6.2C60.1386 5.72 60.1786 5.32 60.2586 5H61.1586C61.0786 4.66 61.0386 4.26 61.0386 3.8C61.0386 3.32 61.0786 2.92 61.1586 2.6H62.6586C62.5786 2.26 62.5386 1.86 62.5386 1.4C62.5386 0.919999 62.5786 0.519999 62.6586 0.2H67.4586C67.5386 0.519999 67.5786 0.919999 67.5786 1.4C67.5786 1.86 67.5386 2.26 67.4586 2.6H68.9586C69.0386 2.92 69.0786 3.32 69.0786 3.8C69.0786 4.26 69.0386 4.66 68.9586 5H69.8586C69.9386 5.32 69.9786 5.72 69.9786 6.2C69.9786 6.66 69.9386 7.06 69.8586 7.4ZM67.4586 12.2C67.3786 11.86 67.3386 11.46 67.3386 11C67.3386 10.52 67.3786 10.12 67.4586 9.8C67.3786 9.46 67.3386 9.06 67.3386 8.6C67.3386 8.12 67.3786 7.72 67.4586 7.4C67.3786 7.06 67.3386 6.66 67.3386 6.2C67.3386 5.72 67.3786 5.32 67.4586 5H66.5586C66.4786 4.66 66.4386 4.26 66.4386 3.8C66.4386 3.32 66.4786 2.92 66.5586 2.6H63.5586C63.6386 2.92 63.6786 3.32 63.6786 3.8C63.6786 4.26 63.6386 4.66 63.5586 5H62.6586C62.7386 5.32 62.7786 5.72 62.7786 6.2C62.7786 6.66 62.7386 7.06 62.6586 7.4C62.7386 7.72 62.7786 8.12 62.7786 8.6C62.7786 9.06 62.7386 9.46 62.6586 9.8C62.7386 10.12 62.7786 10.52 62.7786 11C62.7786 11.46 62.7386 11.86 62.6586 12.2H63.5586C63.6386 12.52 63.6786 12.92 63.6786 13.4C63.6786 13.86 63.6386 14.26 63.5586 14.6H66.5586C66.4786 14.26 66.4386 13.86 66.4386 13.4C66.4386 12.92 66.4786 12.52 66.5586 12.2H67.4586ZM81.8703 2.6C81.9503 2.92 81.9903 3.32 81.9903 3.8C81.9903 4.26 81.9503 4.66 81.8703 5C81.9503 5.32 81.9903 5.72 81.9903 6.2C81.9903 6.66 81.9503 7.06 81.8703 7.4C81.9503 7.72 81.9903 8.12 81.9903 8.6C81.9903 9.06 81.9503 9.46 81.8703 9.8C81.9503 10.12 81.9903 10.52 81.9903 11C81.9903 11.46 81.9503 11.86 81.8703 12.2C81.9503 12.52 81.9903 12.92 81.9903 13.4C81.9903 13.86 81.9503 14.26 81.8703 14.6C81.9503 14.92 81.9903 15.32 81.9903 15.8C81.9903 16.26 81.9503 16.66 81.8703 17H79.4703C79.3903 16.66 79.3503 16.26 79.3503 15.8C79.3503 15.32 79.3903 14.92 79.4703 14.6H77.9703C77.8903 14.26 77.8503 13.86 77.8503 13.4C77.8503 12.92 77.8903 12.52 77.9703 12.2H77.0703C76.9903 11.86 76.9503 11.46 76.9503 11C76.9503 10.52 76.9903 10.12 77.0703 9.8H75.8703C75.7903 9.46 75.7503 9.06 75.7503 8.6C75.7503 8.12 75.7903 7.72 75.8703 7.4H74.6703C74.7503 7.72 74.7903 8.12 74.7903 8.6C74.7903 9.06 74.7503 9.46 74.6703 9.8C74.7503 10.12 74.7903 10.52 74.7903 11C74.7903 11.46 74.7503 11.86 74.6703 12.2C74.7503 12.52 74.7903 12.92 74.7903 13.4C74.7903 13.86 74.7503 14.26 74.6703 14.6C74.7503 14.92 74.7903 15.32 74.7903 15.8C74.7903 16.26 74.7503 16.66 74.6703 17H72.2703C72.1903 16.66 72.1503 16.26 72.1503 15.8C72.1503 15.32 72.1903 14.92 72.2703 14.6C72.1903 14.26 72.1503 13.86 72.1503 13.4C72.1503 12.92 72.1903 12.52 72.2703 12.2C72.1903 11.86 72.1503 11.46 72.1503 11C72.1503 10.52 72.1903 10.12 72.2703 9.8C72.1903 9.46 72.1503 9.06 72.1503 8.6C72.1503 8.12 72.1903 7.72 72.2703 7.4C72.1903 7.06 72.1503 6.66 72.1503 6.2C72.1503 5.72 72.1903 5.32 72.2703 5C72.1903 4.66 72.1503 4.26 72.1503 3.8C72.1503 3.32 72.1903 2.92 72.2703 2.6C72.1903 2.26 72.1503 1.86 72.1503 1.4C72.1503 0.919999 72.1903 0.519999 72.2703 0.2H75.2703C75.3503 0.519999 75.3903 0.919999 75.3903 1.4C75.3903 1.86 75.3503 2.26 75.2703 2.6H76.1703C76.2503 2.92 76.2903 3.32 76.2903 3.8C76.2903 4.26 76.2503 4.66 76.1703 5H77.0703C77.1503 5.32 77.1903 5.72 77.1903 6.2C77.1903 6.66 77.1503 7.06 77.0703 7.4H78.2703C78.3503 7.72 78.3903 8.12 78.3903 8.6C78.3903 9.06 78.3503 9.46 78.2703 9.8H79.4703C79.3903 9.46 79.3503 9.06 79.3503 8.6C79.3503 8.12 79.3903 7.72 79.4703 7.4C79.3903 7.06 79.3503 6.66 79.3503 6.2C79.3503 5.72 79.3903 5.32 79.4703 5C79.3903 4.66 79.3503 4.26 79.3503 3.8C79.3503 3.32 79.3903 2.92 79.4703 2.6C79.3903 2.26 79.3503 1.86 79.3503 1.4C79.3503 0.919999 79.3903 0.519999 79.4703 0.2H81.8703C81.9503 0.519999 81.9903 0.919999 81.9903 1.4C81.9903 1.86 81.9503 2.26 81.8703 2.6Z" fill="#090909"/>
</svg>
